# xmcd
#
# Track frame offsets:
#	150
#	18942
#	34570
#	45152
#	56725
#	68212
#	91807
#	101995
#	113817
#	126767
#	138382
#	150445
#	169157
#	180932
#	192685
#	202787
#	213602
#	232842
#	244297
#	257572
#	268292
#	279575
#	293142
#	305460
#	325680
#
# Disc length: 4598
#
# Revision: 3
# Processed by: cddbd v1.5.1PL0 Copyright (c) Steve Scherf et al.
# Submitted via: CedeCatalogueitor 2.5 http://usuarios.lycos.es/kakasboy
# Normalized: r1:DSETVAR1,TDELIM( - ),TSWAP
#
DISCID=6111f419
DTITLE=Various Artist - Las 100 Mejores Canciones Del Country CD-2
DYEAR=1996
DGENRE=Country
TTITLE0=Willy De Ville - Hey Joe
TTITLE1=Willie Nelson - Always On My Mind
TTITLE2=Kris Kristofferson - Jesus Was A Capricorn
TTITLE3=Everly Brothers - Let It Be Me
TTITLE4=Johnny Cash - Ring Of Fire
TTITLE5=Don Mclean - Vincent
TTITLE6=Patsy Cline - I Love You Honey
TTITLE7=Waylon Jennings - Don't Think Twice, It's Alright
TTITLE8=Gene Vincent - I'm A Lonesome Fugitive
TTITLE9=Jimmy C. Newman - Jambalaya
TTITLE10=Randy Travis - Dreamin'
TTITLE11=John Denver - Rocky Mountain High
TTITLE12=Telly Savalas - Some Broken Hearts Never Mend
TTITLE13=Ray Charles - Together Again
TTITLE14=Frankie Laine - I Believe
TTITLE15=Billie Jo Spears - Here You Come Again
TTITLE16=Timi Yuro - Crazy
TTITLE17=Bonnie Guitar - Country Lady
TTITLE18=B. J. Thomas - I Just Can't Help Believing
TTITLE19=Roger Miller - King Of The Road
TTITLE20=Marie Williams - Don't It Make My Brown Eyes Blue
TTITLE21=Kingston Trio - Tom Dooley
TTITLE22=Anne Murray - I Just Fall In Love Again
TTITLE23=Pussycat - Mississippi
TTITLE24=Jonathan Pierce - One Love
EXTD=
EXTT0=
EXTT1=
EXTT2=
EXTT3=
EXTT4=
EXTT5=
EXTT6=
EXTT7=
EXTT8=
EXTT9=
EXTT10=
EXTT11=
EXTT12=
EXTT13=
EXTT14=
EXTT15=
EXTT16=
EXTT17=
EXTT18=
EXTT19=
EXTT20=
EXTT21=
EXTT22=
EXTT23=
EXTT24=
PLAYORDER=
